<?xml version="1.0" encoding="UTF-8" standalone="no"?>
<!DOCTYPE svg PUBLIC "-//W3C//DTD SVG 1.1//EN" "http://www.w3.org/Graphics/SVG/1.1/DTD/svg11.dtd">
<svg width="100%" height="100%" viewBox="0 0 1080 1080" version="1.1" xmlns="http://www.w3.org/2000/svg" xmlns:xlink="http://www.w3.org/1999/xlink" xml:space="preserve" xmlnsSerif="http://www.serif.com/" style="fill-rule:evenodd;clip-rule:evenodd;stroke-linejoin:round;stroke-miterlimit:2;">
    <g id="braces.svg" transform="matrix(67.0102,0,0,76.8877,538.767,552.609)">
        <g transform="matrix(1,0,0,1,-8,-8)">
            <clipPath id="_clip1">
                <rect x="0" y="0" width="16" height="16"/>
            </clipPath>
            <g clip-path="url(#_clip1)">
                <g transform="matrix(1.17011,0,0,1.17011,-1.57456,-1.51914)">
                    <path d="M2.019,8.132L2.01,7.874C3.015,7.772 3.117,7.294 3.117,6.309L3.126,4.312C3.126,3.218 3.767,2.567 4.731,2.567L5.229,2.558L5.238,2L4.862,2C3.25,2 2.49,2.759 2.49,4.352L2.49,5.876C2.49,6.97 2.461,7.419 1.347,7.419L1.347,8.588C2.461,8.588 2.49,8.993 2.49,10.087L2.49,11.611C2.49,13.204 3.249,13.963 4.862,13.963L5.238,13.963L5.212,13.328L4.662,13.32C3.698,13.32 3.169,12.754 3.169,11.66L3.135,9.62C3.135,8.636 3.024,8.235 2.019,8.132Z" style="fill:rgb(147,147,147);"/>
                </g>
                <g transform="matrix(-1.17011,0,0,1.17011,17.5781,-1.5028)">
                    <path d="M2.019,8.132L2.01,7.874C3.015,7.772 3.117,7.294 3.117,6.309L3.126,4.312C3.126,3.218 3.767,2.567 4.731,2.567L5.229,2.558L5.238,2L4.862,2C3.25,2 2.49,2.759 2.49,4.352L2.49,5.876C2.49,6.97 2.461,7.419 1.347,7.419L1.347,8.588C2.461,8.588 2.49,8.993 2.49,10.087L2.49,11.611C2.49,13.204 3.249,13.963 4.862,13.963L5.238,13.963L5.212,13.328L4.662,13.32C3.698,13.32 3.169,12.754 3.169,11.66L3.135,9.62C3.135,8.636 3.024,8.235 2.019,8.132Z" style="fill:rgb(147,147,147);"/>
                </g>
            </g>
        </g>
    </g>
    <g transform="matrix(0.953667,0,0,1.19635,28.5803,94.2476)">
        <rect x="164.017" y="483.573" width="366.042" height="96.481" style="fill:rgb(96,96,96);"/>
    </g>
    <g transform="matrix(0.964743,0.390066,-0.418195,1.03432,287.083,-75.3469)">
        <rect x="550.525" y="58.473" width="121.04" height="664.84" style="fill:rgb(93,93,93);"/>
    </g>
</svg>
