<?xml version="1.0" encoding="iso-8859-1"?>
<svg version="1.1" id="Layer_1" xmlns="http://www.w3.org/2000/svg" xmlns:xlink="http://www.w3.org/1999/xlink" x="0px" y="0px"
	 viewBox="0 0 1000 1000" style="enable-background:new 0 0 1000 1000;" xml:space="preserve">
<g>
</g>
<g>
	<path style="fill:#FDA703;" d="M416.151,431.362c12.666-12.662,33.45-21.405,50.232-11.476c3.688,2.182,7.129,4.945,10.003,8.127
		c8.862,9.811,11.575,23.477,11.636,36.322c0.122,25.607-9.136,54.778-33.746,67.169c-9.409,4.738-19.92,6.437-30.397,5.979
		c-5.9-0.259-11.833-1.456-17.736-1.532l-0.553-0.004v45.337h-19.578V418.74h19.578v26.018h0.258
		C407.987,439.799,412.378,435.134,416.151,431.362z M417.549,451.197c-1.667,1.929-3.224,3.928-4.748,5.968l-1.009,1.353
		c-2.194,2.93-4.763,6.339-5.952,9.68c-0.889,2.499-0.25,6.122-0.25,8.758v41.473l0.825,0.169c13.48,2.743,27.073,4.45,39.36-3.373
		c16.874-10.744,22.179-31.817,20.888-50.635l-0.039-0.546c-0.662-8.916-2.615-17.919-9.261-24.431
		C444.241,426.757,426.784,440.507,417.549,451.197z M505.538,418.74c0.832,2.892,2.535,5.521,3.784,8.243
		c3.06,6.666,6.35,13.231,9.544,19.835c8.998,18.598,17.978,37.218,26.801,55.899c2.741,5.804,5.584,11.559,8.351,17.351l1.18,2.484
		c1.211,2.564,3.565,5.671,3.959,8.501c0.191,1.365-0.911,3.042-1.433,4.293l-0.035,0.086c-1.54,3.845-3.344,7.52-5.474,11.077
		l-0.84,1.405c-1.915,3.196-3.919,6.437-6.447,9.156l-0.383,0.41c-1.985,2.117-4.098,4.195-6.549,5.758
		c-10.788,6.881-22.779,5.281-34.518,2.59v17.259l0.823,0.105c13.44,1.701,27.051,2.503,39.62-3.781
		c12.8-6.4,20.507-19.054,26.857-31.358c11.604-22.484,20.3-46.589,30.057-69.931l0.381-0.909
		c5.363-12.778,10.611-25.604,15.971-38.382c1.765-4.203,3.478-8.429,5.263-12.622c1.012-2.376,2.432-4.918,2.872-7.47h-13.91
		c-1.399,0-4.098-0.515-5.309,0.265c-1.453,0.937-2.087,4.375-2.749,5.918c-2.308,5.367-4.4,10.829-6.628,16.229
		c-6.157,14.921-12.303,29.852-18.338,44.822c-2.656,6.584-6.553,13.448-8.192,20.35h-0.515l-3.8-7.986l-6.695-13.653
		l-20.868-42.761l-8.114-16.486l-3.449-6.433l-5.76-0.265H505.538z M250,478.76c2.342,1.94,5.78,3.082,8.501,4.443l70.067,35.033
		c7.004,3.502,13.964,7.081,20.957,10.602l2.999,1.505c3.464,1.732,7.516,4.665,11.334,5.346v-12.622l-0.265-5.052l-5.918-3.255
		l-14.941-7.47l-39.413-19.835l-17.259-8.695l17.259-8.564l39.155-19.45l15.198-7.598l5.918-3.192l0.265-4.988v-12.88
		c-3.983,0.71-8.235,3.797-11.85,5.604l-76.249,38.125C267.216,470.089,258.248,473.946,250,478.76z M636.399,422.089v12.622
		c0,1.35-0.484,3.879,0.265,5.052c0.935,1.465,4.135,2.366,5.659,3.128l14.683,7.34c12.98,6.49,25.914,13.086,38.897,19.578
		c5.781,2.89,11.816,7.161,18.032,8.952v0.515c-6.674,1.923-13.359,6.359-19.578,9.468l-37.609,18.805
		c-4.526,2.263-9.008,4.753-13.653,6.761l-0.179,0.076c-1.763,0.733-5.275,1.841-6.253,3.373c-0.75,1.173-0.265,3.701-0.265,5.052
		v12.88l14.168-6.892l75.219-37.609L750,479.018c-2.591-2.618-7.524-4.084-10.819-5.731l-93.766-46.883
		C642.519,424.956,639.513,422.986,636.399,422.089z"/>
</g>
</svg>
